<?xml version="1.0" encoding="UTF-8"?>
<svg id="Layer_2" data-name="Layer 2" xmlns="http://www.w3.org/2000/svg" viewBox="0 0 37.91 37.91">
  <defs>
    <style>
      .cls-1 {
        stroke: #a7a9ac;
        stroke-miterlimit: 10;
        stroke-width: 2.88px;
      }

      .cls-1, .cls-2 {
        fill: #fff;
      }

      .cls-3 {
        fill: #a7a9ac;
      }

      .cls-3, .cls-4, .cls-2 {
        stroke-width: 0px;
      }

      .cls-4 {
        fill: #b9e5fb;
      }
    </style>
  </defs>
  <g id="Layer_1-2" data-name="Layer 1">
    <g>
      <circle class="cls-2" cx="18.95" cy="18.95" r="17.16" transform="translate(-5.99 9.14) rotate(-23.52)"/>
      <g>
        <path class="cls-4" d="m27.16,11.92l3.02-2.2c.34-.25.39-.75.11-1.06-1.41-1.55-3.14-2.81-5.08-3.68-.39-.17-.84.03-.97.43l-1.15,3.55c-.11.33.04.7.36.85,1.04.51,1.99,1.2,2.79,2.03.25.25.64.28.92.08Z"/>
        <path class="cls-4" d="m34.17,17.29c-.23-2.16-.92-4.18-1.95-5.97-.21-.37-.7-.47-1.04-.22l-3.02,2.2c-.28.21-.38.59-.21.9.53,1.01.9,2.11,1.07,3.28.05.35.35.6.7.6h3.74c.43,0,.76-.38.71-.8Z"/>
        <path class="cls-4" d="m32.24,26.55c1.03-1.79,1.71-3.82,1.93-5.97.04-.42-.29-.79-.71-.79h-3.74c-.35,0-.65.26-.7.61-.17,1.17-.53,2.28-1.06,3.28-.16.31-.07.7.21.9l3.02,2.19c.34.25.83.15,1.04-.22Z"/>
        <path class="cls-4" d="m14.8,8.98l-1.16-3.55c-.13-.4-.59-.61-.98-.43-1.94.87-3.66,2.14-5.07,3.7-.29.32-.23.81.11,1.06l3.03,2.19c.29.21.68.17.92-.08.8-.83,1.74-1.52,2.79-2.04.32-.16.47-.52.36-.86Z"/>
        <path class="cls-4" d="m21.46,8.44l1.15-3.56c.13-.4-.12-.83-.53-.92-1.01-.21-2.05-.32-3.12-.32s-2.14.11-3.16.33c-.42.09-.66.52-.53.92l1.16,3.55c.11.33.45.54.79.48.56-.1,1.14-.15,1.74-.15s1.15.05,1.71.15c.35.06.68-.15.79-.48Z"/>
        <path class="cls-4" d="m16.45,29.46l-1.15,3.56c-.13.4.12.83.53.92,1.01.21,2.05.32,3.12.32s2.14-.11,3.16-.33c.42-.09.66-.52.53-.92l-1.16-3.55c-.11-.33-.45-.54-.79-.48-.56.1-1.14.15-1.74.15s-1.15-.05-1.71-.15c-.35-.06-.68.15-.79.48Z"/>
        <path class="cls-4" d="m23.11,28.93l1.16,3.55c.13.4.59.61.98.43,1.94-.87,3.66-2.14,5.07-3.7.29-.32.23-.81-.11-1.06l-3.03-2.19c-.29-.21-.68-.17-.92.08-.8.83-1.74,1.52-2.79,2.04-.32.16-.47.52-.36.86Z"/>
        <path class="cls-4" d="m10.75,25.98l-3.02,2.2c-.34.25-.39.75-.11,1.06,1.41,1.55,3.14,2.81,5.08,3.68.39.17.84-.03.97-.43l1.15-3.55c.11-.33-.04-.7-.36-.85-1.04-.51-1.99-1.2-2.79-2.03-.25-.25-.64-.28-.92-.08Z"/>
        <path class="cls-4" d="m3.74,20.62c.23,2.16.92,4.18,1.95,5.97.21.37.7.47,1.04.22l3.02-2.2c.28-.21.38-.59.21-.9-.53-1.01-.9-2.11-1.07-3.28-.05-.35-.35-.6-.7-.6h-3.74c-.43,0-.76.38-.71.8Z"/>
        <path class="cls-4" d="m5.67,11.35c-1.03,1.79-1.71,3.82-1.93,5.97-.04.42.29.79.71.79h3.74c.35,0,.65-.26.7-.61.17-1.17.53-2.28,1.06-3.28.16-.31.07-.7-.21-.9l-3.02-2.19c-.34-.25-.83-.15-1.04.22Z"/>
      </g>
      <circle class="cls-1" cx="18.95" cy="18.95" r="5.93" transform="translate(-7.8 20.57) rotate(-48.47)"/>
      <path class="cls-3" d="m18.95,1.8c9.47,0,17.15,7.68,17.15,17.15,0,9.47-7.68,17.15-17.16,17.15-9.47,0-17.15-7.68-17.15-17.15,0-9.47,7.68-17.15,17.16-17.15m0-1.8C8.5,0,0,8.5,0,18.95c0,5.06,1.97,9.82,5.55,13.4,3.58,3.58,8.34,5.55,13.4,5.55,10.45,0,18.95-8.5,18.95-18.95,0-5.06-1.97-9.82-5.55-13.4S24.02,0,18.95,0h0Z"/>
    </g>
  </g>
</svg>