<?xml version="1.0" encoding="UTF-8"?>
<svg id="Layer_2" data-name="Layer 2" xmlns="http://www.w3.org/2000/svg" viewBox="0 0 38.96 36.39">
  <defs>
    <style>
      .cls-1 {
        stroke-width: 2.88px;
      }

      .cls-1, .cls-2 {
        stroke-miterlimit: 10;
      }

      .cls-1, .cls-3, .cls-4 {
        fill: #fff;
      }

      .cls-1, .cls-5 {
        stroke: #231f20;
      }

      .cls-2 {
        stroke: #000;
        stroke-width: .27px;
      }

      .cls-2, .cls-5 {
        fill: none;
      }

      .cls-6, .cls-7, .cls-8, .cls-9, .cls-10, .cls-4 {
        stroke-width: 0px;
      }

      .cls-3 {
        font-family: Roboto-Bold, Roboto;
        font-size: 12px;
        font-weight: 700;
      }

      .cls-5 {
        stroke-linecap: round;
        stroke-linejoin: round;
        stroke-width: 1.5px;
      }

      .cls-7 {
        fill: #231f20;
      }

      .cls-8 {
        fill: #d1d3d4;
      }

      .cls-9 {
        fill: #d5e9f4;
      }

      .cls-10 {
        fill: #b9e5fb;
      }
    </style>
  </defs>
  <g id="Layer_1-2" data-name="Layer 1">
    <g>
      <g>
        <circle class="cls-4" cx="20.76" cy="18.2" r="17.44"/>
        <path class="cls-8" d="m37.83,18.24c0,9.7-7.86,17.56-17.56,17.56-6.03,0-11.35-3.04-14.51-7.67,18.38,11.49,29.4-2.6,28.75-11.83-.62-8.82-6.96-14.09-14.24-15.62,2.42,0,4.73.49,6.84,1.38,6.3,2.67,10.72,8.91,10.72,16.18Z"/>
        <g>
          <g>
            <path class="cls-9" d="m29.65,10.64l3.25-2.37c-1.7-2.08-3.94-3.72-6.49-4.7l-1.23,3.79c1.74.72,3.27,1.86,4.46,3.28Z"/>
            <path class="cls-9" d="m36.41,17.3c-.16-2.8-1.05-5.4-2.49-7.62l-3.26,2.37c.95,1.55,1.54,3.33,1.69,5.25h4.06Z"/>
            <path class="cls-9" d="m33.95,26.67c1.43-2.22,2.32-4.82,2.47-7.62h-4.06c-.14,1.92-.73,3.71-1.67,5.26l3.26,2.36Z"/>
            <path class="cls-9" d="m16.31,7.37l-1.23-3.78c-2.55.99-4.78,2.63-6.48,4.72l3.26,2.36c1.19-1.43,2.72-2.57,4.45-3.3Z"/>
            <path class="cls-9" d="m23.53,6.81l1.22-3.78c-1.27-.33-2.61-.51-3.99-.51s-2.74.18-4.03.52l1.23,3.78c.9-.22,1.83-.34,2.79-.34s1.88.12,2.76.34Z"/>
            <path class="cls-9" d="m18,29.58l-1.22,3.78c1.27.33,2.61.51,3.99.51s2.74-.18,4.03-.52l-1.23-3.78c-.9.22-1.83.34-2.79.34s-1.88-.12-2.76-.34Z"/>
            <path class="cls-9" d="m25.21,29.02l1.23,3.78c2.55-.99,4.78-2.63,6.48-4.72l-3.26-2.36c-1.19,1.43-2.72,2.57-4.46,3.3Z"/>
            <path class="cls-9" d="m11.88,25.75l-3.25,2.37c1.7,2.08,3.94,3.72,6.49,4.7l1.23-3.79c-1.74-.72-3.27-1.86-4.46-3.28Z"/>
            <path class="cls-9" d="m5.11,19.09c.16,2.8,1.05,5.4,2.49,7.62l3.26-2.37c-.95-1.55-1.54-3.33-1.69-5.25h-4.06Z"/>
            <path class="cls-9" d="m7.58,9.72c-1.43,2.22-2.32,4.82-2.47,7.62h4.06c.14-1.92.73-3.71,1.67-5.26l-3.26-2.36Z"/>
          </g>
          <g>
            <path class="cls-10" d="m29.65,10.64l3.25-2.37c-1.7-2.08-3.94-3.72-6.49-4.7l-1.23,3.79c1.74.72,3.27,1.86,4.46,3.28Z"/>
            <path class="cls-10" d="m36.41,17.3c-.16-2.8-1.05-5.4-2.49-7.62l-3.26,2.37c.95,1.55,1.54,3.33,1.69,5.25h4.06Z"/>
            <path class="cls-10" d="m33.95,26.67c1.43-2.22,2.32-4.82,2.47-7.62h-4.06c-.14,1.92-.73,3.71-1.67,5.26l3.26,2.36Z"/>
            <path class="cls-10" d="m16.31,7.37l-1.23-3.78c-2.55.99-4.78,2.63-6.48,4.72l3.26,2.36c1.19-1.43,2.72-2.57,4.45-3.3Z"/>
            <path class="cls-10" d="m23.53,6.81l1.22-3.78c-1.27-.33-2.61-.51-3.99-.51s-2.74.18-4.03.52l1.23,3.78c.9-.22,1.83-.34,2.79-.34s1.88.12,2.76.34Z"/>
            <path class="cls-10" d="m18,29.58l-1.22,3.78c1.27.33,2.61.51,3.99.51s2.74-.18,4.03-.52l-1.23-3.78c-.9.22-1.83.34-2.79.34s-1.88-.12-2.76-.34Z"/>
            <path class="cls-10" d="m25.21,29.02l1.23,3.78c2.55-.99,4.78-2.63,6.48-4.72l-3.26-2.36c-1.19,1.43-2.72,2.57-4.46,3.3Z"/>
            <path class="cls-10" d="m11.88,25.75l-3.25,2.37c1.7,2.08,3.94,3.72,6.49,4.7l1.23-3.79c-1.74-.72-3.27-1.86-4.46-3.28Z"/>
            <path class="cls-10" d="m5.11,19.09c.16,2.8,1.05,5.4,2.49,7.62l3.26-2.37c-.95-1.55-1.54-3.33-1.69-5.25h-4.06Z"/>
            <path class="cls-10" d="m7.58,9.72c-1.43,2.22-2.32,4.82-2.47,7.62h4.06c.14-1.92.73-3.71,1.67-5.26l-3.26-2.36Z"/>
          </g>
        </g>
        <g>
          <g>
            <path class="cls-6" d="m28.45,11.83l.51-.37c.21-.15.25-.45.08-.64-1.06-1.18-2.37-2.14-3.84-2.78-.23-.1-.51.03-.59.27l-.19.58c-.07.21.04.44.24.53,1.22.55,2.31,1.36,3.2,2.35.15.17.4.2.59.07Z"/>
            <path class="cls-6" d="m31.79,17.09c-.16-1.63-.68-3.16-1.47-4.51-.13-.22-.43-.27-.63-.12l-.53.38c-.18.13-.23.38-.12.57.64,1.13,1.06,2.4,1.21,3.75.02.22.21.4.43.4h.67c.26,0,.46-.22.44-.47Z"/>
            <path class="cls-6" d="m30.33,23.79c.79-1.35,1.3-2.88,1.46-4.51.02-.25-.18-.47-.44-.47h-.67c-.23,0-.41.17-.43.4-.14,1.36-.56,2.63-1.2,3.76-.11.2-.06.44.12.57l.53.38c.21.15.5.09.63-.13Z"/>
            <path class="cls-6" d="m17.08,8.89l-.19-.58c-.08-.24-.35-.37-.59-.27-1.47.65-2.78,1.61-3.83,2.79-.17.19-.13.49.08.64l.51.37c.18.13.43.1.59-.07.88-.99,1.97-1.8,3.19-2.36.2-.09.31-.32.24-.53Z"/>
            <path class="cls-6" d="m23.25,8.49l.18-.57c.08-.24-.07-.51-.32-.56-.76-.17-1.55-.25-2.36-.25s-1.62.09-2.39.26c-.25.05-.39.32-.31.56l.19.57c.07.22.29.34.51.29.65-.14,1.31-.21,2-.21s1.34.07,1.98.21c.22.05.44-.07.51-.29Z"/>
            <path class="cls-6" d="m18.27,27.9l-.18.57c-.08.24.07.51.32.56.76.17,1.55.25,2.36.25s1.62-.09,2.39-.26c.25-.05.39-.32.31-.56l-.19-.57c-.07-.22-.29-.34-.51-.29-.65.14-1.31.21-2,.21s-1.34-.07-1.98-.21c-.22-.05-.44.07-.51.29Z"/>
            <path class="cls-6" d="m24.45,27.5l.19.58c.08.24.35.37.59.27,1.47-.65,2.78-1.61,3.83-2.79.17-.19.13-.49-.08-.64l-.51-.37c-.18-.13-.43-.1-.59.07-.88.99-1.97,1.8-3.19,2.36-.2.09-.31.32-.24.53Z"/>
            <path class="cls-6" d="m13.08,24.56l-.51.37c-.21.15-.25.45-.08.64,1.06,1.18,2.37,2.14,3.84,2.78.23.1.51-.03.59-.27l.19-.58c.07-.21-.04-.44-.24-.53-1.22-.55-2.31-1.36-3.2-2.35-.15-.17-.4-.2-.59-.07Z"/>
            <path class="cls-6" d="m9.73,19.3c.16,1.63.68,3.16,1.47,4.51.13.22.43.27.63.12l.53-.38c.18-.13.23-.38.12-.57-.64-1.13-1.06-2.4-1.21-3.75-.02-.22-.21-.4-.43-.4h-.67c-.26,0-.46.22-.44.47Z"/>
            <path class="cls-6" d="m11.19,12.61c-.79,1.35-1.3,2.88-1.46,4.51-.02.25.18.47.44.47h.67c.23,0,.41-.17.43-.4.14-1.36.56-2.63,1.2-3.76.11-.2.06-.44-.12-.57l-.53-.38c-.21-.15-.5-.09-.63.13Z"/>
          </g>
          <g>
            <path class="cls-2" d="m28.45,11.83l.51-.37c.21-.15.25-.45.08-.64-1.06-1.18-2.37-2.14-3.84-2.78-.23-.1-.51.03-.59.27l-.19.58c-.07.21.04.44.24.53,1.22.55,2.31,1.36,3.2,2.35.15.17.4.2.59.07Z"/>
            <path class="cls-2" d="m31.79,17.09c-.16-1.63-.68-3.16-1.47-4.51-.13-.22-.43-.27-.63-.12l-.53.38c-.18.13-.23.38-.12.57.64,1.13,1.06,2.4,1.21,3.75.02.22.21.4.43.4h.67c.26,0,.46-.22.44-.47Z"/>
            <path class="cls-2" d="m30.33,23.79c.79-1.35,1.3-2.88,1.46-4.51.02-.25-.18-.47-.44-.47h-.67c-.23,0-.41.17-.43.4-.14,1.36-.56,2.63-1.2,3.76-.11.2-.06.44.12.57l.53.38c.21.15.5.09.63-.13Z"/>
            <path class="cls-2" d="m17.08,8.89l-.19-.58c-.08-.24-.35-.37-.59-.27-1.47.65-2.78,1.61-3.83,2.79-.17.19-.13.49.08.64l.51.37c.18.13.43.1.59-.07.88-.99,1.97-1.8,3.19-2.36.2-.09.31-.32.24-.53Z"/>
            <path class="cls-2" d="m23.25,8.49l.18-.57c.08-.24-.07-.51-.32-.56-.76-.17-1.55-.25-2.36-.25s-1.62.09-2.39.26c-.25.05-.39.32-.31.56l.19.57c.07.22.29.34.51.29.65-.14,1.31-.21,2-.21s1.34.07,1.98.21c.22.05.44-.07.51-.29Z"/>
            <path class="cls-2" d="m18.27,27.9l-.18.57c-.08.24.07.51.32.56.76.17,1.55.25,2.36.25s1.62-.09,2.39-.26c.25-.05.39-.32.31-.56l-.19-.57c-.07-.22-.29-.34-.51-.29-.65.14-1.31.21-2,.21s-1.34-.07-1.98-.21c-.22-.05-.44.07-.51.29Z"/>
            <path class="cls-2" d="m24.45,27.5l.19.58c.08.24.35.37.59.27,1.47-.65,2.78-1.61,3.83-2.79.17-.19.13-.49-.08-.64l-.51-.37c-.18-.13-.43-.1-.59.07-.88.99-1.97,1.8-3.19,2.36-.2.09-.31.32-.24.53Z"/>
            <path class="cls-2" d="m13.08,24.56l-.51.37c-.21.15-.25.45-.08.64,1.06,1.18,2.37,2.14,3.84,2.78.23.1.51-.03.59-.27l.19-.58c.07-.21-.04-.44-.24-.53-1.22-.55-2.31-1.36-3.2-2.35-.15-.17-.4-.2-.59-.07Z"/>
            <path class="cls-2" d="m9.73,19.3c.16,1.63.68,3.16,1.47,4.51.13.22.43.27.63.12l.53-.38c.18-.13.23-.38.12-.57-.64-1.13-1.06-2.4-1.21-3.75-.02-.22-.21-.4-.43-.4h-.67c-.26,0-.46.22-.44.47Z"/>
            <path class="cls-2" d="m11.19,12.61c-.79,1.35-1.3,2.88-1.46,4.51-.02.25.18.47.44.47h.67c.23,0,.41-.17.43-.4.14-1.36.56-2.63,1.2-3.76.11-.2.06-.44-.12-.57l-.53-.38c-.21-.15-.5-.09-.63.13Z"/>
          </g>
        </g>
        <circle class="cls-5" cx="20.76" cy="18.2" r="17.44"/>
      </g>
      <path class="cls-7" d="m4.35,29.55c-.5.33-1.18.17-1.48-.35-1.84-3.23-2.87-7.02-2.87-11s1.05-7.7,2.89-10.92c.3-.52.98-.68,1.48-.35l15.8,10.46c.62.41.62,1.33,0,1.74l-15.82,10.43Z"/>
      <text class="cls-3" transform="translate(3.7 22.4)"><tspan x="0" y="0">V</tspan></text>
      <circle class="cls-1" cx="20.76" cy="18.2" r="5.41" transform="translate(-6.57 22.11) rotate(-49.39)"/>
    </g>
  </g>
</svg>