<?xml version="1.0" encoding="UTF-8"?>
<svg id="Layer_2" data-name="Layer 2" xmlns="http://www.w3.org/2000/svg" viewBox="0 0 46.43 30.69">
  <defs>
    <style>
      .cls-1 {
        font-family: Arial-BoldMT, Arial;
        font-size: 15.51px;
        font-weight: 700;
      }

      .cls-1, .cls-2 {
        fill: #231f20;
      }

      .cls-3 {
        stroke: #68bcdc;
        stroke-linecap: round;
        stroke-linejoin: round;
        stroke-width: 3.88px;
      }

      .cls-3, .cls-4 {
        fill: none;
      }

      .cls-2, .cls-5, .cls-6 {
        stroke-width: 0px;
      }

      .cls-5 {
        fill: #d4effc;
      }

      .cls-6 {
        fill: #fff;
      }

      .cls-4 {
        stroke: #231f20;
        stroke-miterlimit: 10;
        stroke-width: 1.94px;
      }
    </style>
  </defs>
  <g id="Layer_1-2" data-name="Layer 1">
    <g>
      <rect class="cls-5" x=".12" y=".11" width="44.31" height="28.24" rx="4.89" ry="4.89"/>
      <text class="cls-1" transform="translate(4.57 15.56)"><tspan x="0" y="0">Z</tspan></text>
      <polyline class="cls-3" points="17.54 6.31 38.22 6.31 38.22 15.01"/>
      <g>
        <path class="cls-2" d="m37.38,28.3H5.18c-2.86,0-5.18-2.32-5.18-5.18V5.18C0,2.32,2.32,0,5.18,0h34.17c2.86,0,5.18,2.32,5.18,5.18v16.43l-2.33-2.47V5.18c0-1.57-1.28-2.85-2.85-2.85H5.18c-1.57,0-2.85,1.28-2.85,2.85v17.95c0,1.57,1.28,2.85,2.85,2.85h30.05s2.14,2.29,2.14,2.33Z"/>
        <g>
          <circle class="cls-4" cx="32.9" cy="16.42" r="5.92" transform="translate(-2.6 25.98) rotate(-41.6)"/>
          <path class="cls-2" d="m39.58,19.09h3.76v10.93c0,1.04-.84,1.88-1.88,1.88h0c-1.04,0-1.88-.84-1.88-1.88v-10.93h0Z" transform="translate(-6.26 35.07) rotate(-42.93)"/>
        </g>
      </g>
      <circle class="cls-6" cx="32.88" cy="16.46" r="5"/>
    </g>
  </g>
</svg>