<?xml version="1.0" encoding="UTF-8"?>
<svg id="Layer_2" data-name="Layer 2" xmlns="http://www.w3.org/2000/svg" viewBox="0 0 37.29 37.29">
  <defs>
    <style>
      .cls-1 {
        stroke: #231f20;
        stroke-width: 1.51px;
      }

      .cls-1, .cls-2 {
        fill: #e91e25;
        stroke-miterlimit: 10;
      }

      .cls-2 {
        stroke: #f8b4bf;
        stroke-width: 1.17px;
      }

      .cls-3 {
        fill: #a31f23;
      }

      .cls-3, .cls-4 {
        stroke-width: 0px;
      }

      .cls-4 {
        fill: #ed1c24;
      }
    </style>
  </defs>
  <g id="Layer_1-2" data-name="Layer 1">
    <g>
      <path class="cls-1" d="m.75,18.65C.75,8.76,8.76.75,18.65.75s17.89,8.01,17.89,17.89-8.01,17.89-17.89,17.89S.75,28.53.75,18.65"/>
      <g>
        <path class="cls-3" d="m31.8,24.16s-.1-.01-.14-.03l-12.3-5.72c-.13-.06-.2-.19-.19-.33l1.03-13.7c.01-.18.16-.31.33-.31,1.94.24,3.75.85,5.42,1.81,6.29,3.61,8.95,11.39,6.17,18.08-.05.12-.17.21-.31.21h0Z"/>
        <path class="cls-4" d="m20.57,4.4h0,0m0,.04c1.83.24,3.57.83,5.19,1.76,6.12,3.51,8.7,11.06,6.03,17.57l-12.24-5.66,1.02-13.66m-.04-.76c-.37,0-.68.29-.71.66l-1.02,13.7c-.02.3.14.57.41.7l12.3,5.72c.1.05.2.07.3.07.28,0,.54-.16.66-.44,2.81-6.8.21-14.79-6.33-18.55-1.75-1.01-3.63-1.62-5.51-1.86-.03,0-.06,0-.09,0h0Z"/>
      </g>
      <g>
        <path class="cls-3" d="m5.68,24.21c-.14,0-.26-.08-.31-.21-1.75-4.19-1.45-8.85.81-12.79,2.25-3.91,6.1-6.51,10.58-7.13h0c.22,0,.36.14.37.31l1.07,13.69c.01.14-.07.27-.19.33l-12.19,5.77s-.09.03-.14.03Z"/>
        <path class="cls-4" d="m16.8,4.46h0,0m-.04,0l1.09,13.6-12.16,5.75c-1.68-4.07-1.39-8.6.8-12.41,2.18-3.8,5.92-6.33,10.26-6.94m.04-.76s-.07,0-.1,0c-4.39.61-8.47,3.17-10.85,7.32-2.39,4.16-2.54,9-.83,13.12.11.27.38.44.66.44.1,0,.21-.02.3-.07l12.2-5.77c.27-.13.43-.4.4-.7l-1.07-13.69c-.03-.38-.34-.66-.71-.66h0Z"/>
      </g>
      <g>
        <path class="cls-3" d="m18.71,32.91c-2.51,0-5-.67-7.2-1.93-1.66-.95-3.09-2.2-4.25-3.7-.06-.07-.08-.16-.06-.25.01-.09.07-.17.14-.23l11.12-7.58c.06-.04.12-.06.19-.06s.13.02.19.06l11.29,7.55c.08.05.13.13.15.23.01.09,0,.18-.06.26-2.71,3.54-7.01,5.66-11.5,5.66h0Z"/>
        <path class="cls-4" d="m18.68,19.53h0,0m-.02.02l11.23,7.51c-2.65,3.43-6.82,5.48-11.17,5.48-2.45,0-4.87-.65-7.01-1.88-1.6-.92-2.98-2.12-4.11-3.56l11.06-7.54m0-.76c-.14,0-.28.04-.4.12l-11.12,7.58c-.34.23-.41.7-.17,1.02,1.15,1.5,2.62,2.79,4.36,3.79,2.33,1.34,4.88,1.98,7.38,1.98,4.52,0,8.93-2.07,11.8-5.81.25-.33.17-.8-.17-1.02l-11.29-7.55c-.12-.08-.26-.12-.4-.12h0Z"/>
      </g>
      <circle class="cls-2" cx="18.55" cy="18.6" r="6.64"/>
    </g>
  </g>
</svg>